<?xml version="1.0" encoding="UTF-8" standalone="no"?>
<svg
   width="512"
   height="512"
   viewBox="0 0 512 512"
   version="1.1"
   id="svg219"
   sodipodi:docname="add-circle-forest.svg"
   inkscape:version="1.1 (c4e8f9e, 2021-05-24)"
   xmlns:inkscape="http://www.inkscape.org/namespaces/inkscape"
   xmlns:sodipodi="http://sodipodi.sourceforge.net/DTD/sodipodi-0.dtd"
   xmlns="http://www.w3.org/2000/svg"
   xmlns:svg="http://www.w3.org/2000/svg"
   xmlns:rdf="http://www.w3.org/1999/02/22-rdf-syntax-ns#"
   xmlns:cc="http://creativecommons.org/ns#"
   xmlns:dc="http://purl.org/dc/elements/1.1/">
  <defs
     id="defs223" />
  <sodipodi:namedview
     id="namedview221"
     pagecolor="#ffffff"
     bordercolor="#666666"
     borderopacity="1.0"
     inkscape:pageshadow="2"
     inkscape:pageopacity="0.0"
     inkscape:pagecheckerboard="0"
     showgrid="false"
     inkscape:zoom="1.4707031"
     inkscape:cx="256"
     inkscape:cy="264.15936"
     inkscape:window-width="1296"
     inkscape:window-height="1003"
     inkscape:window-x="975"
     inkscape:window-y="257"
     inkscape:window-maximized="0"
     inkscape:current-layer="svg219" />
  <title
     id="title211">ionicons-v5-a</title>
  <path
     d="M448,256c0-106-86-192-192-192S64,150,64,256s86,192,192,192S448,362,448,256Z"
     style="fill:none;stroke:#000;stroke-miterlimit:10;stroke-width:32px"
     id="path213" />
  <line
     x1="256.4595"
     y1="225.2012"
     x2="256.4595"
     y2="294.43756"
     style="fill:none;stroke:#000000;stroke-width:13.2922px;stroke-linecap:round;stroke-linejoin:round"
     id="line215" />
  <line
     x1="288.35791"
     y1="259.8194"
     x2="224.5611"
     y2="259.8194"
     style="fill:none;stroke:#000000;stroke-width:13.2922px;stroke-linecap:round;stroke-linejoin:round"
     id="line217" />
  <path
     d="m 409.04303,310.69514 -29.79327,-49.26242 h 4.44336 c 2.17392,0 4.18457,-1.0697 5.28336,-2.81062 1.0988,-1.74092 1.12004,-3.89245 0.0555,-5.65155 l -29.79327,-49.26242 h 4.44418 c 2.17392,0 4.18457,-1.0697 5.28337,-2.81062 1.09879,-1.74092 1.12003,-3.89244 0.0555,-5.65155 l -32.76803,-54.18213 c -1.0841,-1.79168 -3.12578,-2.90078 -5.3397,-2.90078 -2.21393,0 -4.2556,1.1091 -5.33971,2.90078 l -11.19042,18.50313 c -1.65473,2.73638 -0.60573,6.20004 2.3429,7.73566 2.94945,1.53561 6.68096,0.56288 8.33569,-2.17426 l 5.85073,-9.67506 22.31066,36.89113 h -4.44417 c -2.17393,0 -4.18457,1.06971 -5.28338,2.81063 -1.09879,1.74091 -1.12002,3.89244 -0.0555,5.65154 l 29.79326,49.26242 h -4.44335 c -2.17392,0 -4.18458,1.0697 -5.28338,2.81062 -1.09879,1.74092 -1.12001,3.89245 -0.0555,5.65155 l 29.79327,49.26241 H 374.3623 c -3.3813,0 -6.12258,2.54396 -6.12258,5.68186 0,3.1379 2.74128,5.68185 6.12258,5.68185 h 29.33938 c 2.17392,0 4.18458,-1.0697 5.28337,-2.81063 1.0988,-1.74092 1.12166,-3.89169 0.0579,-5.65154 z"
     id="path2"
     style="stroke-width:0.786414" />
  <path
     d="m 144.75102,313.47621 c 0,-3.13789 -2.74128,-5.68185 -6.12256,-5.68185 h -18.88203 l 29.79327,-49.26242 c 1.0637,-1.75985 1.04247,-3.91062 -0.0555,-5.65154 -1.09798,-1.74092 -3.10944,-2.81063 -5.28337,-2.81063 h -4.44417 l 29.79327,-49.26241 c 1.0637,-1.75986 1.04247,-3.91063 -0.0555,-5.65155 -1.09798,-1.74091 -3.10945,-2.81062 -5.28338,-2.81062 h -4.44334 l 22.31065,-36.89113 5.85074,9.67506 c 1.65472,2.73638 5.38623,3.70911 8.33568,2.17426 2.94864,-1.53562 3.99764,-4.99928 2.34291,-7.73566 l -11.19045,-18.50314 c -1.08409,-1.79168 -3.12496,-2.90153 -5.3397,-2.90153 -2.21391,0 -4.2556,1.1091 -5.3397,2.90078 l -32.76802,54.18213 c -1.0637,1.75986 -1.04248,3.91063 0.0555,5.65155 1.09798,1.74092 3.10945,2.81062 5.28337,2.81062 h 4.44336 l -29.79326,49.26242 c -1.0637,1.75986 -1.04248,3.91063 0.0555,5.65155 1.09798,1.74092 3.10945,2.81062 5.28337,2.81062 h 4.44418 l -29.79327,49.26242 c -1.0637,1.75985 -1.04247,3.91062 0.0555,5.65154 1.09798,1.74093 3.10945,2.81063 5.28337,2.81063 h 29.33938 c 3.38293,7.6e-4 6.12421,-2.5432 6.12421,-5.6811 z"
     id="path4"
     style="stroke-width:0.786414" />
  <path
     d="m 379.77466,344.49382 h -42.73558 v -8.28944 c 0,-3.13789 -2.74128,-5.68186 -6.12258,-5.68186 -3.38129,0 -6.12257,2.54397 -6.12257,5.68186 v 8.28944 h -62.17435 v -25.33499 h 83.66133 c 2.17393,0 4.18458,-1.06971 5.28338,-2.81063 1.09879,-1.74092 1.12001,-3.89245 0.0555,-5.65155 l -37.94446,-62.74128 h 7.93976 c 3.38129,0 6.12257,-2.54396 6.12257,-5.68186 0,-1.15228 -0.3698,-2.22501 -1.00491,-3.11971 l -37.73956,-62.40341 h 7.92343 c 3.39762,0 6.1389,-2.54395 6.1389,-5.68184 0,-1.15228 -0.3698,-2.22502 -1.00491,-3.12048 l -40.21472,-66.49585 c -1.0841,-1.79167 -3.12577,-2.90077 -5.33889,-2.90077 -2.2131,0 -4.25558,1.1091 -5.33969,2.90077 l -40.41962,66.83373 c -1.06369,1.75986 -1.04246,3.91064 0.0555,5.65155 1.09797,1.74092 3.10944,2.81062 5.28337,2.81062 H 224 l -37.94446,62.74205 c -1.0637,1.75986 -1.04247,3.91062 0.0555,5.65155 1.09797,1.74091 3.10944,2.81062 5.28337,2.81062 h 7.92343 l -37.94446,62.74128 c -1.0637,1.75986 -1.04247,3.91063 0.0555,5.65155 1.09798,1.74092 3.10945,2.81063 5.28337,2.81063 h 83.66213 v 25.335 h -62.17516 v -8.28945 c 0,-3.1379 -2.74128,-5.68186 -6.12257,-5.68186 -3.3813,0 -6.12258,2.54396 -6.12258,5.68186 v 8.28945 h -42.73884 c -2.3821,0 -4.54785,1.28182 -5.55195,3.28713 -1.00411,2.00456 -0.66369,4.36745 0.87186,6.05761 31.94596,35.16006 78.58611,55.32382 127.96182,55.32382 18.65019,0 36.98689,-2.84699 54.50072,-8.46142 3.19599,-1.025 4.89234,-4.25986 3.78783,-7.2258 -1.10368,-2.96668 -4.59193,-4.54018 -7.78628,-3.51517 -16.22483,5.20155 -33.21619,7.83868 -50.50227,7.83868 -41.18942,0 -80.32574,-15.14326 -109.33124,-41.93812 H 365.8282 c -10.96349,10.13264 -23.4364,18.64783 -37.22035,25.39636 -2.99108,1.4644 -4.13642,4.90079 -2.55843,7.67656 1.578,2.77577 5.28256,3.83791 8.27201,2.37426 19.23305,-9.41596 36.10034,-22.02134 50.1341,-37.46614 1.53554,-1.69015 1.87596,-4.05305 0.87186,-6.05761 -1.00493,-2.00531 -3.17068,-3.28714 -5.55277,-3.28714 z m -202.60501,-36.69946 37.94446,-62.74128 c 1.0637,-1.75986 1.04247,-3.91063 -0.0555,-5.65155 -1.09797,-1.74092 -3.10944,-2.81063 -5.28337,-2.81063 h -7.92343 l 37.94446,-62.74203 c 1.0637,-1.75986 1.04247,-3.91064 -0.0555,-5.65155 -1.09798,-1.74092 -3.10945,-2.81062 -5.28337,-2.81062 h -7.92343 l 29.96306,-49.54424 29.96226,49.54272 h -7.92343 c -2.17392,0 -4.18458,1.06971 -5.28338,2.81062 -1.0988,1.74092 -1.12002,3.89245 -0.0555,5.65155 l 37.94446,62.74204 h -7.92343 c -2.17393,0 -4.18458,1.0697 -5.28338,2.81063 -1.0988,1.74092 -1.12002,3.89244 -0.0555,5.65154 l 37.94446,62.74129 H 177.16965 Z"
     id="path12"
     style="stroke-width:0.786414" />
  <metadata
     id="metadata341">
    <rdf:RDF>
      <cc:Work
         rdf:about="">
        <dc:title>ionicons-v5-a</dc:title>
      </cc:Work>
    </rdf:RDF>
  </metadata>
</svg>
