<svg xmlns="http://www.w3.org/2000/svg" width="512" height="512" viewBox="0 0 512 512"><title>ionicons-v5-a</title>
    <path d="M448,256c0-106-86-192-192-192S64,150,64,256s86,192,192,192S448,362,448,256Z" style="fill:none;stroke:#000;stroke-miterlimit:10;stroke-width:32px"/>
    <line x1="256" y1="176" x2="256" y2="336" style="fill:none;stroke:#000;stroke-linecap:round;stroke-linejoin:round;stroke-width:32px"/>
    <line x1="336" y1="256" x2="176" y2="256" style="fill:none;stroke:#000;stroke-linecap:round;stroke-linejoin:round;stroke-width:32px"/>
    <path stroke-width="0.786414" id="path2" d="m409.04303,310.69514l-29.79327,-49.26242l4.44336,0c2.17392,0 4.18457,-1.0697 5.28336,-2.81062c1.0988,-1.74092 1.12004,-3.89245 0.0555,-5.65155l-29.79327,-49.26242l4.44418,0c2.17392,0 4.18457,-1.0697 5.28337,-2.81062c1.09879,-1.74092 1.12003,-3.89244 0.0555,-5.65155l-32.76803,-54.18213c-1.0841,-1.79168 -3.12578,-2.90078 -5.3397,-2.90078c-2.21393,0 -4.2556,1.1091 -5.33971,2.90078l-11.19042,18.50313c-1.65473,2.73638 -0.60573,6.20004 2.3429,7.73566c2.94945,1.53561 6.68096,0.56288 8.33569,-2.17426l5.85073,-9.67506l22.31066,36.89113l-4.44417,0c-2.17393,0 -4.18457,1.06971 -5.28338,2.81063c-1.09879,1.74091 -1.12002,3.89244 -0.0555,5.65154l29.79326,49.26242l-4.44335,0c-2.17392,0 -4.18458,1.0697 -5.28338,2.81062c-1.09879,1.74092 -1.12001,3.89245 -0.0555,5.65155l29.79327,49.26241l-18.88283,0c-3.3813,0 -6.12258,2.54396 -6.12258,5.68186c0,3.1379 2.74128,5.68185 6.12258,5.68185l29.33938,0c2.17392,0 4.18458,-1.0697 5.28337,-2.81063c1.0988,-1.74092 1.12166,-3.89169 0.0579,-5.65154l0.00008,0z"/>
    <path stroke-width="0.786414" id="path4" d="m144.75102,313.47621c0,-3.13789 -2.74128,-5.68185 -6.12256,-5.68185l-18.88203,0l29.79327,-49.26242c1.0637,-1.75985 1.04247,-3.91062 -0.0555,-5.65154c-1.09798,-1.74092 -3.10944,-2.81063 -5.28337,-2.81063l-4.44417,0l29.79327,-49.26241c1.0637,-1.75986 1.04247,-3.91063 -0.0555,-5.65155c-1.09798,-1.74091 -3.10945,-2.81062 -5.28338,-2.81062l-4.44334,0l22.31065,-36.89113l5.85074,9.67506c1.65472,2.73638 5.38623,3.70911 8.33568,2.17426c2.94864,-1.53562 3.99764,-4.99928 2.34291,-7.73566l-11.19045,-18.50314c-1.08409,-1.79168 -3.12496,-2.90153 -5.3397,-2.90153c-2.21391,0 -4.2556,1.1091 -5.3397,2.90078l-32.76802,54.18213c-1.0637,1.75986 -1.04248,3.91063 0.0555,5.65155c1.09798,1.74092 3.10945,2.81062 5.28337,2.81062l4.44336,0l-29.79326,49.26242c-1.0637,1.75986 -1.04248,3.91063 0.0555,5.65155c1.09798,1.74092 3.10945,2.81062 5.28337,2.81062l4.44418,0l-29.79327,49.26242c-1.0637,1.75985 -1.04247,3.91062 0.0555,5.65154c1.09798,1.74093 3.10945,2.81063 5.28337,2.81063l29.33938,0c3.38293,0.00076 6.12421,-2.5432 6.12421,-5.6811l-0.00001,0z"/>
    <path stroke-width="0.786414" id="path12" d="m379.77466,344.49382l-42.73558,0l0,-8.28944c0,-3.13789 -2.74128,-5.68186 -6.12258,-5.68186c-3.38129,0 -6.12257,2.54397 -6.12257,5.68186l0,8.28944l-62.17435,0l0,-25.33499l83.66133,0c2.17393,0 4.18458,-1.06971 5.28338,-2.81063c1.09879,-1.74092 1.12001,-3.89245 0.0555,-5.65155l-37.94446,-62.74128l7.93976,0c3.38129,0 6.12257,-2.54396 6.12257,-5.68186c0,-1.15228 -0.3698,-2.22501 -1.00491,-3.11971l-37.73956,-62.40341l7.92343,0c3.39762,0 6.1389,-2.54395 6.1389,-5.68184c0,-1.15228 -0.3698,-2.22502 -1.00491,-3.12048l-40.21472,-66.49585c-1.0841,-1.79167 -3.12577,-2.90077 -5.33889,-2.90077c-2.2131,0 -4.25558,1.1091 -5.33969,2.90077l-40.41962,66.83373c-1.06369,1.75986 -1.04246,3.91064 0.0555,5.65155c1.09797,1.74092 3.10944,2.81062 5.28337,2.81062l7.92344,0l-37.94446,62.74205c-1.0637,1.75986 -1.04247,3.91062 0.0555,5.65155c1.09797,1.74091 3.10944,2.81062 5.28337,2.81062l7.92343,0l-37.94446,62.74128c-1.0637,1.75986 -1.04247,3.91063 0.0555,5.65155c1.09798,1.74092 3.10945,2.81063 5.28337,2.81063l83.66213,0l0,25.335l-62.17516,0l0,-8.28945c0,-3.1379 -2.74128,-5.68186 -6.12257,-5.68186c-3.3813,0 -6.12258,2.54396 -6.12258,5.68186l0,8.28945l-42.73884,0c-2.3821,0 -4.54785,1.28182 -5.55195,3.28713c-1.00411,2.00456 -0.66369,4.36745 0.87186,6.05761c31.94596,35.16006 78.58611,55.32382 127.96182,55.32382c18.65019,0 36.98689,-2.84699 54.50072,-8.46142c3.19599,-1.025 4.89234,-4.25986 3.78783,-7.2258c-1.10368,-2.96668 -4.59193,-4.54018 -7.78628,-3.51517c-16.22483,5.20155 -33.21619,7.83868 -50.50227,7.83868c-41.18942,0 -80.32574,-15.14326 -109.33124,-41.93812l218.66248,0c-10.96349,10.13264 -23.4364,18.64783 -37.22035,25.39636c-2.99108,1.4644 -4.13642,4.90079 -2.55843,7.67656c1.578,2.77577 5.28256,3.83791 8.27201,2.37426c19.23305,-9.41596 36.10034,-22.02134 50.1341,-37.46614c1.53554,-1.69015 1.87596,-4.05305 0.87186,-6.05761c-1.00493,-2.00531 -3.17068,-3.28714 -5.55277,-3.28714l0.00004,0zm-202.60501,-36.69946l37.94446,-62.74128c1.0637,-1.75986 1.04247,-3.91063 -0.0555,-5.65155c-1.09797,-1.74092 -3.10944,-2.81063 -5.28337,-2.81063l-7.92343,0l37.94446,-62.74203c1.0637,-1.75986 1.04247,-3.91064 -0.0555,-5.65155c-1.09798,-1.74092 -3.10945,-2.81062 -5.28337,-2.81062l-7.92343,0l29.96306,-49.54424l29.96226,49.54272l-7.92343,0c-2.17392,0 -4.18458,1.06971 -5.28338,2.81062c-1.0988,1.74092 -1.12002,3.89245 -0.0555,5.65155l37.94446,62.74204l-7.92343,0c-2.17393,0 -4.18458,1.0697 -5.28338,2.81063c-1.0988,1.74092 -1.12002,3.89244 -0.0555,5.65154l37.94446,62.74129l-158.65394,0l0,0.00151z"/>
</svg>