<?xml version="1.0" encoding="UTF-8" standalone="no"?>
<!-- Generator: Adobe Illustrator 19.0.0, SVG Export Plug-In . SVG Version: 6.00 Build 0)  -->

<svg
   version="1.1"
   id="Capa_1"
   x="0px"
   y="0px"
   viewBox="0 0 470 470"
   
   xml:space="preserve"
   sodipodi:docname="forest-svgrepo-com.svg"
   inkscape:version="1.1 (c4e8f9e, 2021-05-24)"
   xmlns:inkscape="http://www.inkscape.org/namespaces/inkscape"
   xmlns:sodipodi="http://sodipodi.sourceforge.net/DTD/sodipodi-0.dtd"
   xmlns="http://www.w3.org/2000/svg"
   xmlns:svg="http://www.w3.org/2000/svg"><defs
   id="defs49" /><sodipodi:namedview
   id="namedview47"
   pagecolor="#ffffff"
   bordercolor="#666666"
   borderopacity="1.0"
   inkscape:pageshadow="2"
   inkscape:pageopacity="0.0"
   inkscape:pagecheckerboard="0"
   showgrid="false"
   inkscape:zoom="1.6021277"
   inkscape:cx="112.03851"
   inkscape:cy="242.49004"
   inkscape:window-width="1296"
   inkscape:window-height="1003"
   inkscape:window-x="0"
   inkscape:window-y="23"
   inkscape:window-maximized="0"
   inkscape:current-layer="g14" />
<g
   id="g14">
	<path
   d="M421.865,310.028l-36.496-65.026h5.443c2.663,0,5.126-1.412,6.472-3.71s1.372-5.138,0.068-7.46l-36.496-65.026h5.444   c2.663,0,5.126-1.412,6.472-3.71s1.372-5.138,0.068-7.46l-40.14-71.52c-1.328-2.365-3.829-3.829-6.541-3.829   s-5.213,1.464-6.541,3.829l-13.708,24.424c-2.027,3.612-0.742,8.184,2.87,10.211c3.613,2.027,8.184,0.743,10.211-2.87l7.167-12.771   l27.33,48.696h-5.444c-2.663,0-5.126,1.412-6.472,3.71s-1.372,5.138-0.068,7.46l36.496,65.026h-5.443   c-2.663,0-5.126,1.412-6.472,3.71s-1.372,5.138-0.068,7.46l36.496,65.026h-23.131c-4.142,0-7.5,3.358-7.5,7.5s3.358,7.5,7.5,7.5   h35.94c2.663,0,5.126-1.412,6.472-3.71S423.168,312.351,421.865,310.028z"
   id="path2"
    />
	<path
   d="M98.114,313.699c0-4.142-3.358-7.5-7.5-7.5h-23.13l36.496-65.026c1.303-2.323,1.277-5.162-0.068-7.46   s-3.809-3.71-6.472-3.71h-5.444l36.496-65.026c1.303-2.323,1.277-5.162-0.068-7.46s-3.809-3.71-6.472-3.71h-5.443l27.33-48.696   l7.167,12.771c2.027,3.612,6.598,4.896,10.211,2.87c3.612-2.027,4.897-6.599,2.87-10.211l-13.708-24.424   c-1.328-2.365-3.828-3.83-6.541-3.83c-2.712,0-5.213,1.464-6.541,3.829l-40.14,71.52c-1.303,2.323-1.277,5.162,0.068,7.46   s3.809,3.71,6.472,3.71h5.443l-36.496,65.026c-1.303,2.323-1.277,5.162,0.068,7.46s3.809,3.71,6.472,3.71h5.444l-36.496,65.026   c-1.303,2.323-1.277,5.162,0.068,7.46s3.809,3.71,6.472,3.71h35.94C94.756,321.199,98.114,317.841,98.114,313.699z"
   id="path4"
    />
	
	
	<path
   d="M401.17,68.83C356.785,24.444,297.771,0,235,0S113.215,24.444,68.83,68.83C24.444,113.215,0,172.229,0,235   s24.444,121.785,68.83,166.17C113.215,445.556,172.229,470,235,470s121.785-24.444,166.17-68.83   C445.556,356.785,470,297.771,470,235S445.556,113.215,401.17,68.83z M235,455c-121.309,0-220-98.691-220-220S113.691,15,235,15   s220,98.691,220,220S356.309,455,235,455z"
   id="path10"
    />
	<path
   d="m 386.012,354.642 h -52.35 V 343.7 c 0,-4.142 -3.358,-7.5 -7.5,-7.5 -4.142,0 -7.5,3.358 -7.5,7.5 v 10.942 H 242.5 V 321.2 h 102.483 c 2.663,0 5.126,-1.412 6.472,-3.71 1.346,-2.298 1.372,-5.138 0.068,-7.46 l -46.481,-82.818 h 9.726 c 4.142,0 7.5,-3.358 7.5,-7.5 0,-1.521 -0.453,-2.937 -1.231,-4.118 l -46.23,-82.372 h 9.706 c 4.162,0 7.52,-3.358 7.52,-7.5 0,-1.521 -0.453,-2.937 -1.231,-4.119 L 241.54,33.829 C 240.212,31.464 237.711,30 235,30 c -2.711,0 -5.213,1.464 -6.541,3.829 l -49.513,88.22 c -1.303,2.323 -1.277,5.162 0.068,7.46 1.345,2.298 3.809,3.71 6.472,3.71 h 9.706 l -46.481,82.819 c -1.303,2.323 -1.277,5.162 0.068,7.46 1.345,2.298 3.809,3.71 6.472,3.71 h 9.706 l -46.481,82.818 c -1.303,2.323 -1.277,5.162 0.068,7.46 1.345,2.298 3.809,3.71 6.472,3.71 H 227.5 v 33.442 h -76.163 v -10.942 c 0,-4.142 -3.358,-7.5 -7.5,-7.5 -4.142,0 -7.5,3.358 -7.5,7.5 v 10.942 H 83.983 c -2.918,0 -5.571,1.692 -6.801,4.339 -1.23,2.646 -0.813,5.765 1.068,7.996 C 117.383,413.384 174.516,440 235,440 c 22.846,0 45.308,-3.758 66.762,-11.169 3.915,-1.353 5.993,-5.623 4.64,-9.538 -1.352,-3.916 -5.625,-5.993 -9.538,-4.64 C 276.989,421.519 256.175,425 235,425 184.544,425 136.603,405.011 101.072,369.642 h 267.856 c -13.43,13.375 -28.709,24.615 -45.594,33.523 -3.664,1.933 -5.067,6.469 -3.134,10.133 1.933,3.664 6.471,5.066 10.133,3.134 23.56,-12.429 44.222,-29.068 61.413,-49.455 1.881,-2.231 2.298,-5.35 1.068,-7.996 -1.231,-2.647 -3.884,-4.339 -6.802,-4.339 z m -248.186,-48.443 46.481,-82.818 c 1.303,-2.323 1.277,-5.162 -0.068,-7.46 -1.345,-2.298 -3.809,-3.71 -6.472,-3.71 h -9.706 l 46.481,-82.819 c 1.303,-2.323 1.277,-5.162 -0.068,-7.46 -1.345,-2.298 -3.809,-3.71 -6.472,-3.71 h -9.706 L 235,52.824 271.703,118.22 h -9.706 c -2.663,0 -5.126,1.412 -6.472,3.71 -1.346,2.298 -1.372,5.138 -0.068,7.46 l 46.481,82.819 h -9.706 c -2.663,0 -5.126,1.412 -6.472,3.71 -1.346,2.298 -1.372,5.138 -0.068,7.46 l 46.481,82.818 H 137.826 Z"
   id="path12"
    />
<line
   x1="235"
   y1="203.47635"
   x2="235"
   y2="281.50372"
   
   id="line215" /><line
   x1="272.76535"
   y1="242.49004"
   x2="197.23465"
   y2="242.49004"
   
   id="line217" /></g>
<g
   id="g16">
</g>
<g
   id="g18">
</g>
<g
   id="g20">
</g>
<g
   id="g22">
</g>
<g
   id="g24">
</g>
<g
   id="g26">
</g>
<g
   id="g28">
</g>
<g
   id="g30">
</g>
<g
   id="g32">
</g>
<g
   id="g34">
</g>
<g
   id="g36">
</g>
<g
   id="g38">
</g>
<g
   id="g40">
</g>
<g
   id="g42">
</g>
<g
   id="g44">
</g>
</svg>
